<svg xmlns="http://www.w3.org/2000/svg" width="150" height="50" viewBox="0 0 150 50"><rect width="100%" height="100%" fill="#DDDDDD"/><path fill="#999999" d="m35.98 20.4-.54 1.02q-.09.16-.2.24t-.27.08q-.17 0-.36-.13-.2-.12-.47-.27-.27-.16-.64-.28-.36-.12-.86-.12-.44 0-.78.1-.34.11-.56.3-.23.2-.34.46-.12.27-.12.59 0 .41.23.68t.61.47q.37.19.85.34t.99.32q.5.18.98.4.48.23.86.58.37.35.6.85.23.51.23 1.23 0 .78-.27 1.46-.27.69-.78 1.2-.52.5-1.26.8-.75.29-1.71.29-.55 0-1.09-.11-.53-.11-1.02-.31-.5-.2-.93-.48t-.77-.62l.64-1.03q.08-.12.2-.19.13-.08.28-.08.2 0 .43.17.23.16.55.36t.75.36q.43.17 1.03.17.92 0 1.42-.44.5-.43.5-1.25 0-.46-.22-.74-.23-.29-.61-.49-.37-.19-.85-.33t-.98-.3-.98-.38-.85-.58q-.38-.36-.61-.9-.22-.54-.22-1.34 0-.63.25-1.23t.73-1.06q.48-.47 1.18-.75.71-.28 1.62-.28 1.02 0 1.89.32.86.32 1.47.9m6.1 8.36v-1.38q-.85.04-1.44.14-.58.11-.93.28t-.51.39q-.15.23-.15.49 0 .52.31.74.31.23.8.23.61 0 1.06-.22.44-.22.86-.67m-4.17-4.31-.35-.63q1.41-1.3 3.4-1.3.72 0 1.29.24.57.23.96.65t.6 1.01q.2.58.2 1.28v5.18h-.89q-.28 0-.44-.08-.15-.09-.24-.34l-.17-.6q-.31.28-.61.5-.3.21-.62.35-.32.15-.68.22-.36.08-.8.08-.52 0-.96-.14t-.76-.42-.5-.7q-.18-.41-.18-.97 0-.31.11-.62.1-.3.34-.58.23-.28.61-.53t.92-.43q.55-.19 1.28-.3.73-.12 1.66-.14v-.48q0-.83-.35-1.22-.35-.4-1.01-.4-.48 0-.8.11t-.56.25-.43.26q-.2.11-.44.11-.21 0-.35-.11t-.23-.25m9.67-1.42.14.65q.24-.25.52-.46t.58-.36q.31-.15.66-.23.36-.09.77-.09.67 0 1.19.23t.87.64.53.99q.18.57.18 1.26v5.22h-1.98v-5.22q0-.76-.34-1.17t-1.05-.41q-.51 0-.96.23t-.85.63v5.94h-1.97v-8.21h1.21q.38 0 .5.36m10.05 7.98q-1.07 0-1.65-.61-.57-.6-.57-1.66v-4.59h-.84q-.16 0-.27-.1-.11-.11-.11-.31v-.79l1.32-.21.41-2.24q.04-.16.16-.25.11-.09.28-.09h1.03v2.58h2.19v1.41h-2.19v4.45q0 .38.19.6.18.22.51.22.19 0 .31-.05.12-.04.22-.09l.16-.09q.07-.05.14-.05.09 0 .15.05.05.04.12.13l.59.96q-.43.36-.99.54-.56.19-1.16.19m6.85-8.47q.91 0 1.66.3.74.3 1.28.84.53.54.82 1.33.28.78.28 1.75 0 .98-.28 1.76-.29.78-.82 1.34-.54.55-1.28.84-.75.3-1.66.3-.92 0-1.68-.3-.75-.29-1.28-.84-.53-.56-.82-1.34-.3-.78-.3-1.76 0-.97.3-1.75.29-.79.82-1.33t1.28-.84q.76-.3 1.68-.3m0 6.94q1.02 0 1.51-.69t.49-2.01q0-1.33-.49-2.03-.49-.69-1.51-.69-1.04 0-1.54.7t-.5 2.02.5 2.01 1.54.69m12.19-2.97h3.68l-1.41-3.85q-.1-.25-.22-.6-.11-.36-.22-.76-.1.4-.22.76-.11.36-.21.62zm2.93-7.2 4.55 11.57h-1.67q-.28 0-.45-.14-.18-.14-.27-.35l-.86-2.36h-4.79l-.87 2.36q-.06.19-.24.34-.19.15-.46.15h-1.68l4.55-11.57zm7.15 3.72.13.65q.25-.25.53-.46.27-.21.58-.36t.66-.23q.35-.09.77-.09.67 0 1.19.23t.87.64.53.99q.18.57.18 1.26v5.22h-1.98v-5.22q0-.76-.34-1.17-.35-.41-1.05-.41-.51 0-.96.23t-.85.63v5.94h-1.97v-8.21h1.2q.39 0 .51.36m7.37-.36h1.99v8.21h-1.99zm2.26-2.39q0 .26-.1.48-.11.22-.28.39t-.4.27q-.24.1-.5.1t-.48-.1q-.23-.1-.4-.27t-.27-.39-.1-.48.1-.5q.1-.23.27-.4.17-.16.4-.26.22-.1.48-.1t.5.1q.23.1.4.26.17.17.28.4.1.24.1.5m3.72 10.6h-1.98v-8.21h1.21q.39 0 .51.36l.12.61q.22-.24.46-.44.23-.2.5-.34.27-.15.58-.23.3-.09.67-.09.78 0 1.28.42t.75 1.12q.19-.41.48-.7.28-.29.63-.48.34-.18.73-.27t.78-.09q.68 0 1.21.21t.89.61.54.98q.19.57.19 1.32v5.22h-1.97v-5.22q0-.79-.35-1.18-.34-.4-1.01-.4-.3 0-.56.1-.26.11-.46.3-.19.2-.3.5-.12.29-.12.68v5.22h-1.98v-5.22q0-.83-.33-1.2-.33-.38-.97-.38-.44 0-.81.21t-.69.58zm15.76-2.12v-1.38q-.86.04-1.44.14-.58.11-.94.28-.35.17-.5.39-.15.23-.15.49 0 .52.31.74.3.23.8.23.61 0 1.05-.22.45-.22.87-.67m-4.18-4.31-.35-.63q1.42-1.3 3.41-1.3.72 0 1.29.24.57.23.96.65t.59 1.01q.21.58.21 1.28v5.18h-.9q-.28 0-.43-.08-.15-.09-.24-.34l-.18-.6q-.31.28-.6.5-.3.21-.62.35-.32.15-.68.22-.37.08-.81.08-.52 0-.96-.14t-.76-.42-.49-.7q-.18-.41-.18-.97 0-.31.1-.62.11-.3.34-.58.24-.28.62-.53.37-.25.92-.43.55-.19 1.28-.3.72-.12 1.66-.14v-.48q0-.83-.35-1.22-.35-.4-1.02-.4-.48 0-.79.11-.32.11-.56.25t-.44.26q-.19.11-.43.11-.21 0-.35-.11-.15-.11-.24-.25m7.99-5.46h1.97v11.89h-1.97z"/></svg>